<svg xmlns="http://www.w3.org/2000/svg" xmlns:xlink="http://www.w3.org/1999/xlink" width="34" height="56"><defs><path id="a" d="M49.8 502.86c0-.45.22-.95.56-1.29l26-26c.33-.33.84-.56 1.28-.56.45 0 .95.23 1.29.56l2.79 2.8c.33.33.55.83.55 1.27 0 .45-.22.95-.55 1.29l-21.93 21.93 21.93 21.93c.33.33.55.84.55 1.28 0 .5-.22.95-.55 1.28l-2.8 2.8c-.33.33-.83.55-1.28.55-.44 0-.95-.22-1.28-.56l-26-26a1.92 1.92 0 0 1-.56-1.28z"/></defs><use fill="#fff" xlink:href="#a" opacity=".5" transform="translate(-49 -475)"/></svg>