<svg xmlns="http://www.w3.org/2000/svg" xmlns:xlink="http://www.w3.org/1999/xlink" width="34" height="56"><defs><path id="a" d="M1550.2 502.86c0-.45-.22-.95-.56-1.29l-26-26a1.92 1.92 0 0 0-1.28-.56c-.45 0-.95.23-1.29.56l-2.79 2.8c-.33.33-.55.83-.55 1.27 0 .45.22.95.55 1.29l21.93 21.93-21.93 21.93c-.33.33-.55.84-.55 1.28 0 .5.22.95.55 1.28l2.8 2.8c.33.33.83.55 1.28.55.44 0 .95-.22 1.28-.56l26-26c.34-.33.56-.84.56-1.28z"/></defs><use fill="#fff" xlink:href="#a" opacity=".5" transform="translate(-1517 -475)"/></svg>